<?xml version="1.0" encoding="UTF-8" standalone="no"?><!DOCTYPE svg PUBLIC "-//W3C//DTD SVG 1.1//EN" "http://www.w3.org/Graphics/SVG/1.1/DTD/svg11.dtd"><svg width="100%" height="100%" viewBox="0 0 246 246" version="1.1" xmlns="http://www.w3.org/2000/svg" xmlns:xlink="http://www.w3.org/1999/xlink" xml:space="preserve" xmlns:serif="http://www.serif.com/" style="fill-rule:evenodd;clip-rule:evenodd;stroke-linejoin:round;stroke-miterlimit:2;"><path d="M10.593,225.02l0,-97.517l37.229,0l-0,67.032l-37.229,30.485Zm46.836,-38.352l0,-89.418l37.229,0l0,58.934l-37.229,30.484Zm46.837,-38.351l-0,-82.09l37.228,0l0,51.605l-37.228,30.485Zm46.836,-38.352l-0,-77.576l37.229,0l-0,47.092l-37.229,30.484Zm46.836,-38.351l0,-59.82l37.229,-0l-0,29.335l-37.229,30.485Z" style="fill:#315e93;"/><path d="M10.593,233.76l224.574,-0l-0,-183.891l-224.574,183.891Z" style="fill:#2f5e92;"/></svg>